<svg width="13" height="14" viewBox="0 0 13 14" fill="none" xmlns="http://www.w3.org/2000/svg">
<path d="M11.7445 5.73755C12.2094 5.73755 12.6195 6.14771 12.6195 6.61255V7.48755C12.6195 7.97974 12.2094 8.36255 11.7445 8.36255H7.80703V12.3C7.80703 12.7922 7.39687 13.175 6.93203 13.175H6.05703C5.56484 13.175 5.18203 12.7922 5.18203 12.3V8.36255H1.24453C0.752344 8.36255 0.369531 7.97974 0.369531 7.48755V6.61255C0.369531 6.14771 0.752344 5.73755 1.24453 5.73755H5.18203V1.80005C5.18203 1.33521 5.56484 0.925049 6.05703 0.925049H6.93203C7.39687 0.925049 7.80703 1.33521 7.80703 1.80005V5.73755H11.7445Z" fill="white"/>
</svg>
