<svg width="15" height="15" viewBox="0 0 15 15" fill="none" xmlns="http://www.w3.org/2000/svg">
<path d="M8.35508 10.95H6.16758C5.78477 10.95 5.51133 10.6765 5.51133 10.2937V5.69995H3.10508C2.61289 5.69995 2.3668 5.12573 2.72227 4.77026L6.87852 0.614014C7.06992 0.422607 7.42539 0.422607 7.6168 0.614014L11.773 4.77026C12.1285 5.12573 11.8824 5.69995 11.3902 5.69995H9.01133V10.2937C9.01133 10.6765 8.71055 10.95 8.35508 10.95ZM14.2613 10.7312V13.7937C14.2613 14.1765 13.9605 14.45 13.6051 14.45H0.917578C0.534766 14.45 0.261328 14.1765 0.261328 13.7937V10.7312C0.261328 10.3757 0.534766 10.075 0.917578 10.075H4.63633V10.2937C4.63633 11.1414 5.31992 11.825 6.16758 11.825H8.35508C9.17539 11.825 9.88633 11.1414 9.88633 10.2937V10.075H13.6051C13.9605 10.075 14.2613 10.3757 14.2613 10.7312ZM10.8707 13.1375C10.8707 12.8367 10.6246 12.5906 10.3238 12.5906C10.023 12.5906 9.77695 12.8367 9.77695 13.1375C9.77695 13.4382 10.023 13.6843 10.3238 13.6843C10.6246 13.6843 10.8707 13.4382 10.8707 13.1375ZM12.6207 13.1375C12.6207 12.8367 12.3746 12.5906 12.0738 12.5906C11.773 12.5906 11.527 12.8367 11.527 13.1375C11.527 13.4382 11.773 13.6843 12.0738 13.6843C12.3746 13.6843 12.6207 13.4382 12.6207 13.1375Z" fill="white"/>
</svg>
