<?xml version="1.0" encoding="UTF-8"?>
<svg version="1.1" xmlns="http://www.w3.org/2000/svg" width="467" height="435">
<path d="M0 0 C154.11 0 308.22 0 467 0 C467 143.55 467 287.1 467 435 C312.89 435 158.78 435 0 435 C0 291.45 0 147.9 0 0 Z " fill="#FEFEFE" transform="translate(0,0)"/>
<path d="M0 0 C5.44229309 0.08568996 10.88439335 0.07004179 16.32722902 0.06777859 C25.45904668 0.07893903 34.58784897 0.16310313 43.718678 0.29513454 C54.27137119 0.44720648 64.82093193 0.50143358 75.37464988 0.49960542 C86.62532836 0.49847681 97.87482045 0.56590846 109.12510777 0.65485191 C112.36236059 0.67598519 115.59944871 0.68460159 118.83676195 0.69055843 C123.92196313 0.70349871 129.00463738 0.76257136 134.08895159 0.85732555 C135.95361547 0.88518861 137.81857686 0.89789865 139.68344545 0.89431286 C153.77661231 0.88224134 153.77661231 0.88224134 157.80083036 4.19988441 C159.36792628 6.50489157 160.4111208 8.62738115 161.40276003 11.22286892 C162.05349489 12.29190456 162.70422976 13.36094021 163.37468386 14.46237087 C163.94726931 15.45196804 164.51985476 16.44156521 165.10979128 17.46115017 C165.77011354 18.59673367 166.43043581 19.73231716 167.11076784 20.90231228 C167.45321535 21.49365963 167.79566286 22.08500698 168.14848757 22.69427395 C174.36473974 33.42262609 180.69430137 44.07620887 187.15276003 54.66036892 C192.69716859 63.75017626 198.18019577 72.87211143 203.58025026 82.04855251 C212.10006342 96.51877483 220.71784491 110.93382113 229.55119753 125.21505642 C231.85420421 128.9562276 234.13363947 132.71106898 236.40276003 136.47286892 C236.80156374 137.13045193 237.20036745 137.78803493 237.61125612 138.4655447 C240.40276003 143.10652798 240.40276003 143.10652798 240.40276003 144.22286892 C224.52161034 144.57386388 208.64151338 144.83805973 192.7574439 145.0000515 C185.38130249 145.07728186 178.00757553 145.18247839 170.63298464 145.35446072 C164.20217649 145.50436117 157.77311659 145.60082712 151.34060997 145.63419634 C147.93601329 145.6536973 144.53641548 145.69920148 141.13342905 145.80881977 C120.41529669 146.40296248 120.41529669 146.40296248 115.41785669 142.78644657 C112.30452525 139.32631734 110.59658622 135.51441488 109.11785936 131.14311981 C107.95562116 128.02217027 106.21214683 125.37301492 104.44572878 122.55490017 C103.16031803 120.38187361 101.8751657 118.20869417 100.59026003 116.03536892 C94.38368728 105.5474341 88.13864209 95.08333223 81.85588503 84.64083767 C80.327068 82.09691901 78.80198918 79.55078891 77.27776003 77.00411892 C72.18002435 68.48941986 67.06299746 59.9902907 61.82854128 51.55880642 C60.40276003 49.22286892 60.40276003 49.22286892 59.40276003 47.22286892 C40.92276003 46.89286892 22.44276003 46.56286892 3.40276003 46.22286892 C9.60565179 57.15443777 9.60565179 57.15443777 16.15276003 67.84786892 C19.83469348 73.67777558 23.42910418 79.55344417 26.96526003 85.47286892 C32.27177006 94.35489772 37.6328849 103.20291071 43.00957155 112.04254055 C48.08856453 120.39376623 53.14028205 128.76035418 58.12810183 137.16647243 C60.61571263 141.33505381 63.17555094 145.43827567 65.84026003 149.49630642 C66.40446657 150.36183132 66.96867311 151.22735622 67.54997683 152.11910915 C68.6321228 153.77048835 69.72671778 155.41380005 70.83562136 157.04733181 C74.38488962 162.47231157 74.38488962 162.47231157 74.46526003 165.84786892 C73.06391968 168.98027677 71.41172724 171.885355 69.59026003 174.78536892 C68.76695469 176.12627619 67.94405939 177.46743528 67.12151003 178.80880642 C66.68065065 179.52262478 66.23979128 180.23644314 65.78557253 180.97189236 C63.35338101 184.93107416 60.97579216 188.9229671 58.59026003 192.91036892 C57.55662138 194.6331545 56.52276526 196.35580961 55.48869753 198.07833767 C53.5127304 201.37141001 51.53876204 204.66566461 49.56682253 207.96115017 C45.22239519 215.21734788 40.86836871 222.46691136 36.46526003 229.68771267 C26.81944596 245.50787553 17.35626062 261.42435374 8.03410769 277.43746853 C6.50806306 280.04307212 4.95633125 282.63358355 3.40276003 285.22286892 C21.88276003 285.55286892 40.36276003 285.88286892 59.40276003 286.22286892 C60.06276003 284.57286892 60.72276003 282.92286892 61.40276003 281.22286892 C62.21972828 279.70778232 63.07044737 278.2105306 63.94963503 276.73068142 C64.71159182 275.44363308 64.71159182 275.44363308 65.48894167 274.13058376 C66.03800173 273.21228786 66.58706179 272.29399197 67.15276003 271.34786892 C67.72695681 270.38187771 68.30115358 269.4158865 68.89275026 268.42062283 C74.20446896 259.50614192 79.60415816 250.64555693 85.01213503 241.78927517 C88.10530327 236.71972237 91.16652717 231.6317348 94.21526003 226.53536892 C98.9280186 218.6636784 103.66693533 210.80802907 108.42262697 202.96221828 C109.19854507 201.68178408 109.97395945 200.4010445 110.74885988 199.11999416 C111.83388899 197.32659318 112.9207926 195.53434236 114.00822878 193.74240017 C114.63882204 192.70188503 115.2694153 191.6613699 115.91911745 190.589324 C117.40276003 188.22286892 117.40276003 188.22286892 118.40276003 187.22286892 C119.98430851 187.12692667 121.57015127 187.10098932 123.15460634 187.1026144 C124.1825078 187.10123974 125.21040926 187.09986507 126.26945925 187.09844875 C127.40665407 187.10204403 128.5438489 187.10563931 129.71550417 187.10934353 C130.9055858 187.1091975 132.09566744 187.10905148 133.32181215 187.10890102 C136.59439277 187.10947998 139.8669311 187.1145091 143.13950324 187.12147498 C146.55614667 187.12770925 149.97279086 187.12831238 153.38943911 187.12950039 C159.8634527 187.13261349 166.33744949 187.14082659 172.81145567 187.15084988 C180.18013923 187.16201167 187.54882358 187.16752163 194.91751349 187.17254531 C210.07927171 187.18300922 225.24101419 187.20060826 240.40276003 187.22286892 C239.61206101 188.81792699 238.81978275 190.41220226 238.0268445 192.00614834 C237.58581518 192.89404458 237.14478586 193.78194082 236.69039202 194.69674301 C235.09875783 197.81927211 233.3441715 200.80981651 231.51213503 203.79708767 C231.16322206 204.36885235 230.8143091 204.94061703 230.45482302 205.52970791 C229.35788939 207.32559204 228.25558387 209.11809727 227.15276003 210.91036892 C226.07143842 212.67574717 224.99127863 214.44183262 223.91118288 216.20796108 C223.183579 217.39767435 222.45562995 218.58717658 221.72734499 219.77647305 C215.29375183 230.29082328 208.99898379 240.88818977 202.72038698 251.495574 C195.78328059 263.21534729 188.80321293 274.90615318 181.71526003 286.53536892 C175.88405336 296.10451096 170.11332466 305.70636367 164.40276003 315.34786892 C164.05274935 315.93839046 163.70273867 316.52891201 163.3421216 317.13732815 C159.72782745 323.10021193 159.72782745 323.10021193 156.40276003 329.22286892 C91.06276003 329.22286892 25.72276003 329.22286892 -41.59723997 329.22286892 C-44.56723997 323.94286892 -47.53723997 318.66286892 -50.59723997 313.22286892 C-53.32620865 308.66600613 -56.06922997 304.12426997 -58.84723997 299.59786892 C-60.3374929 297.15896507 -61.82515399 294.7184875 -63.31208372 292.27755642 C-63.67811201 291.676954 -64.0441403 291.07635159 -64.42126036 290.4575491 C-67.79880697 284.90759742 -71.1146291 279.32214045 -74.40973997 273.72286892 C-81.694356 261.34973434 -89.05580317 249.02503177 -96.53083372 236.76583767 C-97.94915798 234.43923124 -99.36713183 232.11241175 -100.78473997 229.78536892 C-101.1408737 229.20082943 -101.49700743 228.61628994 -101.86393309 228.01403713 C-108.2661909 217.49662169 -114.52492093 206.8989456 -120.71320677 196.25436306 C-128.39462382 182.89495369 -128.39462382 182.89495369 -136.86628294 170.03634548 C-138.59723997 167.22286892 -138.59723997 167.22286892 -138.04645872 164.17990017 C-136.63220777 161.29421831 -135.14355053 158.61633816 -133.40973997 155.91036892 C-132.69054683 154.77084352 -131.97327639 153.63010352 -131.25739622 152.48849392 C-130.84505735 151.83171658 -130.43271849 151.17493923 -130.0078845 150.49825954 C-127.06575816 145.75256596 -124.21443254 140.9515558 -121.34723997 136.16036892 C-120.36847898 134.52684475 -120.36847898 134.52684475 -119.36994505 132.86032009 C-118.06067291 130.67518 -116.75166892 128.48987922 -115.4429431 126.30441189 C-112.83027266 121.94235816 -110.21392045 117.5825179 -107.59723997 113.22286892 C-104.4345752 107.95353426 -101.27368519 102.68315143 -98.11677122 97.41036892 C-87.65273763 79.9414864 -87.65273763 79.9414864 -82.46052122 71.42599392 C-82.11330015 70.85638439 -81.76607908 70.28677486 -81.40833616 69.69990444 C-81.05930235 69.12732403 -80.71026854 68.55474361 -80.35065794 67.96481228 C-79.64116349 66.80084444 -78.93169091 65.63686328 -78.22223997 64.47286892 C-77.87018492 63.89537899 -77.51812986 63.31788906 -77.15540648 62.72289944 C-73.10351207 56.07084096 -69.09251937 49.3976558 -65.16364622 42.67208767 C-64.79551817 42.04196774 -64.42739012 41.4118478 -64.04810667 40.76263332 C-62.30312755 37.77216778 -60.56412027 34.77849106 -58.83210325 31.78048611 C-57.54860713 29.5710784 -56.21905035 27.38772871 -54.84289122 25.23481655 C-53.10109414 22.36334526 -52.05875272 19.64938735 -51.09411192 16.43839931 C-43.30645485 -5.09585833 -18.87601199 -0.35884151 0 0 Z " fill="#1C1C1A" transform="translate(186.5972399711609,60.77713108062744)"/>
<path d="M0 0 C1.46084436 2.32016457 1.99509202 3.79877301 2.0625 6.5625 C1 9 1 9 -2.5625 10.8125 C-3.696875 11.204375 -4.83125 11.59625 -6 12 C-4.43358249 7.69235185 -2.31663844 3.93828536 0 0 Z " fill="#2A2A28" transform="translate(142,69)"/>
<path d="M0 0 C0.99 0.99 1.98 1.98 3 3 C2.34 4.32 1.68 5.64 1 7 C0.01 6.67 -0.98 6.34 -2 6 C-2.66 7.32 -3.32 8.64 -4 10 C-4.33 9.34 -4.66 8.68 -5 8 C-4.00390625 6.0546875 -4.00390625 6.0546875 -2.5625 3.875 C-2.08941406 3.15054688 -1.61632812 2.42609375 -1.12890625 1.6796875 C-0.75636719 1.12539062 -0.38382813 0.57109375 0 0 Z " fill="#30302F" transform="translate(132,86)"/>
<path d="M0 0 C1.32 0 2.64 0 4 0 C4 0.66 4 1.32 4 2 C3.34 2 2.68 2 2 2 C2 2.99 2 3.98 2 5 C0.35 5.33 -1.3 5.66 -3 6 C-2.01 4.02 -1.02 2.04 0 0 Z " fill="#2C2C2A" transform="translate(106,129)"/>
<path d="M0 0 C0.33 0.66 0.66 1.32 1 2 C-0.59617578 5.83082186 -1.49984971 7.66656647 -5 10 C-3.66511872 6.40608886 -2.03977277 3.24509304 0 0 Z " fill="#3B3B3A" transform="translate(84,166)"/>
</svg>
