<svg width="15" height="15" viewBox="0 0 15 15" fill="none" xmlns="http://www.w3.org/2000/svg">
<path d="M7.362 0.675293C11.0807 0.675293 14.1432 3.73779 14.1432 7.45654C14.1432 11.2026 11.0807 14.2378 7.362 14.2378C3.61591 14.2378 0.58075 11.2026 0.58075 7.45654C0.58075 3.73779 3.61591 0.675293 7.362 0.675293ZM7.362 3.68311C6.70575 3.68311 6.21356 4.20264 6.21356 4.83154C6.21356 5.48779 6.70575 5.97998 7.362 5.97998C7.99091 5.97998 8.51044 5.48779 8.51044 4.83154C8.51044 4.20264 7.99091 3.68311 7.362 3.68311ZM8.89325 10.6284V9.97217C8.89325 9.80811 8.72919 9.64404 8.56512 9.64404H8.237V6.90967C8.237 6.74561 8.07294 6.58154 7.90887 6.58154H6.15887C5.96747 6.58154 5.83075 6.74561 5.83075 6.90967V7.56592C5.83075 7.75732 5.96747 7.89404 6.15887 7.89404H6.487V9.64404H6.15887C5.96747 9.64404 5.83075 9.80811 5.83075 9.97217V10.6284C5.83075 10.8198 5.96747 10.9565 6.15887 10.9565H8.56512C8.72919 10.9565 8.89325 10.8198 8.89325 10.6284Z" fill="#1E2022"/>
</svg>
